<?xml version="1.0" encoding="UTF-8"?>
<!DOCTYPE svg PUBLIC "-//W3C//DTD SVG 1.1//EN" "http://www.w3.org/Graphics/SVG/1.1/DTD/svg11.dtd">
<!-- Creator: CorelDRAW -->
<svg xmlns="http://www.w3.org/2000/svg" xml:space="preserve" width="131.471mm" height="34.834mm" version="1.1" style="shape-rendering:geometricPrecision; text-rendering:geometricPrecision; image-rendering:optimizeQuality; fill-rule:evenodd; clip-rule:evenodd"
viewBox="0 0 13147.1 3483.4"
 xmlns:xlink="http://www.w3.org/1999/xlink"
 xmlns:xodm="http://www.corel.com/coreldraw/odm/2003">
 <defs>
  <style type="text/css">
   <![CDATA[
    .fil1 {fill:#F3F3F3}
    .fil0 {fill:#00A0E3}
    .fil2 {fill:#008DD2;fill-rule:nonzero}
    .fil3 {fill:url(#id0);fill-rule:nonzero}
    .fil4 {fill:url(#id1);fill-rule:nonzero}
   ]]>
  </style>
  <linearGradient id="id0" gradientUnits="userSpaceOnUse" x1="2769.89" y1="1047.42" x2="4396.95" y2="2387.08">
   <stop offset="0" style="stop-opacity:1; stop-color:#0574AE"/>
   <stop offset="1" style="stop-opacity:1; stop-color:#095D9C"/>
  </linearGradient>
  <linearGradient id="id1" gradientUnits="userSpaceOnUse" x1="4856.49" y1="1672.5" x2="12037.92" y2="1672.5">
   <stop offset="0" style="stop-opacity:1; stop-color:#008DD2"/>
   <stop offset="1" style="stop-opacity:1; stop-color:#095D9C"/>
  </linearGradient>
 </defs>
 <g id="Layer_x0020_1">
  <metadata id="CorelCorpID_0Corel-Layer"/>
  <g id="_1932751774368">
   <rect class="fil0" transform="matrix(3.87405 -0 -0.502351 2.93401 613.765 139.95)" width="3256.87" height="1139.73" rx="198.21" ry="198.21"/>
   <rect class="fil1" transform="matrix(3.87405 -0 -0.502351 2.93401 474.311 0.49533)" width="3256.87" height="1139.73" rx="198.21" ry="198.21"/>
   <path class="fil2" d="M2357.95 2831.15c-166.07,80.32 -383.69,120.48 -651.79,120.48 -349.5,0 -624.65,-102.57 -824.91,-308.26 -200.8,-205.69 -300.66,-479.75 -300.66,-822.2 0,-364.7 112.34,-660.47 337.56,-887.33 225.22,-226.85 517.74,-340.27 877.01,-340.27 222.51,0 410.29,28.22 562.79,84.66l0 494.41c-152.5,-91.18 -326.16,-136.77 -521.54,-136.77 -213.83,0 -386.95,67.3 -518.28,201.89 -131.34,134.59 -197.01,316.94 -197.01,547.05 0,220.34 61.87,396.17 186.15,526.97 123.74,130.79 290.89,196.46 500.92,196.46 200.26,0 383.69,-48.85 549.76,-146.53l0 469.44z"/>
   <g>
    <path class="fil3" d="M4566.29 2680.26c-217.12,124.98 -487.2,187.47 -810.23,187.47 -357.46,0 -639.72,-99.03 -846.25,-297.09 -206,-198.06 -309.26,-470.78 -309.26,-818.18 0,-349.51 112.79,-634.41 338.39,-854.71 225.06,-220.83 525.33,-330.98 899.73,-330.98 235.65,0 443.77,32.83 623.3,97.97l0 470.25c-171.58,-99.56 -381.29,-148.81 -629.66,-148.81 -208.12,0 -377.05,67.26 -507.85,202.3 -131.33,135.04 -196.47,315.09 -196.47,540.68 0,228.25 58.78,405.12 175.82,530.63 117.56,124.97 275.9,187.46 475.55,187.46 120.21,0 215.53,-16.94 285.43,-50.83l0 -434.78 -444.83 0 0 -400.35 946.33 0 0 1118.97z"/>
    <path class="fil4" d="M5708.03 2867.73c-264.78,0 -472.9,-74.14 -624.36,-222.42 -151.45,-148.28 -227.18,-350.04 -227.18,-604.23 0,-262.67 78.37,-468.67 235.65,-616.95 157.29,-148.27 370.17,-222.41 637.6,-222.41 263.72,0 470.78,74.14 620.65,222.41 149.87,148.28 225.07,344.75 225.07,588.88 0,263.72 -77.32,472.37 -231.95,625.42 -154.64,153.04 -366.46,229.3 -635.48,229.3zm12.71 -1290.55c-115.98,0 -206,39.72 -270.08,119.15 -64.08,79.96 -96.38,192.76 -96.38,338.39 0,305.03 123.39,457.55 369.64,457.55 234.59,0 352.16,-156.75 352.16,-469.73 0,-297.08 -118.63,-445.36 -355.34,-445.36zm1662.83 1251.89l-489.85 0 0 -2351.8 489.85 0 0 2351.8zm1840.24 -654.54l-1036.36 0c16.42,230.36 162.05,345.8 435.83,345.8 174.76,0 328.33,-41.3 460.72,-123.91l0 353.74c-146.69,78.38 -337.33,117.57 -572.46,117.57 -256.31,0 -455.42,-70.96 -597.35,-213.42 -141.39,-141.92 -212.35,-340.51 -212.35,-594.7 0,-263.72 76.26,-472.9 229.83,-627 153.04,-154.11 341.04,-230.89 564.52,-230.89 231.42,0 410.94,68.84 537.5,206 126.57,137.68 190.12,324.62 190.12,560.28l0 206.53zm-454.37 -301.32c0,-227.19 -92.14,-341.04 -276.43,-341.04 -78.38,0 -146.69,32.3 -203.88,97.44 -57.73,65.13 -92.15,146.68 -104.86,243.6l585.17 0zm3268.48 955.86l-488.79 0 0 -906.09c0,-230.89 -84.73,-345.8 -254.19,-345.8 -80.5,0 -146.16,34.42 -197,103.79 -50.84,69.38 -76.26,155.7 -76.26,258.96l0 889.14 -489.84 0 0 -915.62c0,-224 -83.68,-336.27 -249.96,-336.27 -83.67,0 -150.93,32.83 -200.7,99.03 -50.31,66.19 -75.73,156.22 -75.73,270.08l0 882.78 -489.85 0 0 -1588.69 489.85 0 0 248.36 6.35 0c50.84,-84.73 121.8,-154.1 213.42,-207.06 91.61,-53.48 191.7,-79.96 300.26,-79.96 224.54,0 378.11,98.5 460.72,296.02 121.27,-197.52 298.68,-296.02 533.8,-296.02 345.28,0 517.92,212.88 517.92,639.18l0 988.17z"/>
   </g>
  </g>
 </g>
</svg>
